<svg height="496pt" viewBox="0 -32 496 496" width="496pt" xmlns="http://www.w3.org/2000/svg"><path d="m288 192c-39.703125 0-72-32.296875-72-72s32.296875-72 72-72 72 32.296875 72 72-32.296875 72-72 72zm0 0" fill="#f0bc5e"/><path d="m336 400h-224c-8.839844 0-16-7.160156-16-16v-144c0-8.839844 7.160156-16 16-16h224c8.839844 0 16 7.160156 16 16v144c0 8.839844-7.160156 16-16 16zm0 0" fill="#f0bc5e"/><path d="m288 96c4.40625 0 8 3.59375 8 8h16c0-10.414062-6.710938-19.214844-16-22.527344v-17.472656h-16v17.472656c-9.289062 3.3125-16 12.113282-16 22.527344 0 13.230469 10.769531 24 24 24 4.40625 0 8 3.59375 8 8s-3.59375 8-8 8-8-3.59375-8-8h-16c0 10.414062 6.710938 19.214844 16 22.527344v17.472656h16v-17.472656c9.289062-3.3125 16-12.113282 16-22.527344 0-13.230469-10.769531-24-24-24-4.40625 0-8-3.59375-8-8s3.59375-8 8-8zm0 0"/><path d="m400 288h16v48h-16zm0 0"/><path d="m32 296h16v32h-16zm0 0"/><path d="m224 336c-4.40625 0-8-3.585938-8-8h-16c0 10.414062 6.710938 19.214844 16 22.527344v17.472656h16v-17.472656c9.289062-3.3125 16-12.113282 16-22.527344 0-13.230469-10.769531-24-24-24-4.40625 0-8-3.585938-8-8s3.59375-8 8-8 8 3.585938 8 8h16c0-10.414062-6.710938-19.214844-16-22.527344v-17.472656h-16v17.472656c-9.289062 3.3125-16 12.113282-16 22.527344 0 13.230469 10.769531 24 24 24 4.40625 0 8 3.585938 8 8s-3.59375 8-8 8zm0 0"/><path d="m400 352h16v16h-16zm0 0"/><path d="m400 256h16v16h-16zm0 0"/><path d="m80 0v192h-40c-22.054688 0-40 17.945312-40 40v160c0 22.054688 17.945312 40 40 40h368c22.054688 0 40-17.945312 40-40v-152h48v-240zm-64 392v-160c0-13.230469 10.769531-24 24-24h24v208h-24c-13.230469 0-24-10.769531-24-24zm416 0c0 13.230469-10.769531 24-24 24h-24v-208h24c13.230469 0 24 10.769531 24 24zm-272.808594-200c-3.183594-15.648438-15.542968-28.007812-31.191406-31.191406v-81.617188c15.648438-3.183594 28.007812-15.542968 31.191406-31.191406h257.609375c3.183594 15.648438 15.542969 28.007812 31.191407 31.191406v81.609375c-15.648438 3.183594-28.007813 15.542969-31.191407 31.191407h-257.609375zm320.808594 32h-32.808594c-1.984375-9.742188-7.519531-18.207031-15.191406-23.984375v-.015625c0-13.230469 10.769531-24 24-24h8v-112h-8c-13.230469 0-24-10.769531-24-24v-8h-288v8c0 13.230469-10.769531 24-24 24h-8v112h8c13.230469 0 24 10.769531 24 24v8h224v208h-288v-208h16v-192h384zm0 0"/></svg>