<svg height="496pt" viewBox="0 0 496 496" width="496pt" xmlns="http://www.w3.org/2000/svg"><path d="m282.992188 101.007812 15.726562-62.902343-48 8 7.527344-30.105469h-10.246094c-68.585938 0-102.441406 12.832031-116.566406 20.527344l-7.890625-14.984375-6.902344 3.199219c-1.496094.691406-35.167969 16.90625-50.449219 76.890624l-26.191406-8.738281v11.105469c0 49.296875 6.054688 80.160156 7.792969 88h8.207031c0-17.671875 14.328125-32 32-32h1.351562c30.519532 0 60.472657-8.296875 86.648438-24 0 10.519531-2.449219 20.894531-7.152344 30.3125l-.847656 1.6875c26.472656-5.296875 51.832031-15.097656 74.976562-28.984375l5.023438-3.015625v24c17.671875 0 32 14.328125 32 32l-.511719 13.550781 10.070313-13.550781c6.867187-11.214844 22.441406-41.761719 22.441406-88v-10.246094zm0 0" fill="#f0bc5e"/><path d="m424 0h-112c-22.054688 0-40 17.945312-40 40v2.550781l16.007812-2.671875c.0625-13.175781 10.800782-23.878906 23.992188-23.878906h112c13.230469 0 24 10.769531 24 24v24h-155.753906l-4 16h159.753906v144h-160v-32c0-19.3125-13.769531-35.472656-32-39.191406v-30.9375l-17.144531 10.28125c-18.101563 10.863281-37.480469 19.09375-57.757813 24.558594 1.917969-6.726563 2.902344-13.71875 2.902344-20.710938v-14.128906l-12.121094 7.273437c-24.917968 14.953125-53.453125 22.855469-82.527344 22.855469h-9.351562v.808594c-18.230469 3.71875-32 19.878906-32 39.191406 0 19.703125 14.351562 36.023438 33.425781 39.304688 4.292969 24.367187 18.605469 45.296874 38.574219 58.351562v16.574219l-81.710938 27.242187c-22.898437 7.632813-38.289062 28.984375-38.289062 53.128906v53.398438h232v-16h-152v-48h-16v48h-48v-37.398438c0-17.25 10.992188-32.496093 27.351562-37.953124l50.128907-16.710938 41.3125 74.367188 33.207031-41.496094 33.199219 41.503906 41.3125-74.367188 50.128906 16.710938c7.269531 2.421875 13.664063 6.855469 18.472656 12.816406l12.453125-10.058594c-6.734375-8.335937-15.679687-14.542968-25.855468-17.941406l-81.710938-27.242187v-16.574219c19.960938-13.046875 34.265625-33.96875 38.574219-58.328125 6.488281-1.082031 12.394531-3.726563 17.425781-7.542969v40.214844c0 22.054688 17.945312 40 40 40h112c22.054688 0 40-17.945312 40-40v-224c0-22.054688-17.945312-40-40-40zm-360 192c0-10.414062 6.710938-19.214844 16-22.527344v45.046875c-9.289062-3.304687-16-12.105469-16-22.519531zm73.199219 185.6875-28.277344-50.902344 16.910156-5.640625 31.441407 31.441407zm89.871093-50.894531-28.277343 50.902343-20.082031-25.09375 31.441406-31.441406zm-27.070312-18.105469-32 32-32-32v-10.800781c9.9375 3.898437 20.703125 6.113281 32 6.113281s22.0625-2.214844 32-6.113281zm40-92.6875c0 39.695312-32.296875 72-72 72s-72-32.304688-72-72v-48.128906c24.398438-.917969 48.320312-6.894532 70.238281-17.511719-1.0625 4.273437-2.582031 8.433594-4.550781 12.367187l-8.160156 16.320313 16.039062-3.207031c24.761719-4.953125 48.417969-13.648438 70.433594-25.871094zm16-1.472656v-45.046875c9.289062 3.3125 16 12.113281 16 22.527343 0 10.417969-6.710938 19.207032-16 22.519532zm168 73.472656h-112c-13.230469 0-24-10.769531-24-24v-24h160v24c0 13.230469-10.769531 24-24 24zm0 0"/><path d="m344 32h48v16h-48zm0 0"/><path d="m408 32h16v16h-16zm0 0"/><path d="m312 32h16v16h-16zm0 0"/><path d="m152 232h-16c0 17.648438 14.351562 32 32 32s32-14.351562 32-32h-16c0 8.824219-7.175781 16-16 16s-16-7.175781-16-16zm0 0"/><path d="m136 184c0 4.417969-3.582031 8-8 8s-8-3.582031-8-8 3.582031-8 8-8 8 3.582031 8 8zm0 0"/><path d="m216 184c0 4.417969-3.582031 8-8 8s-8-3.582031-8-8 3.582031-8 8-8 8 3.582031 8 8zm0 0"/><path d="m352 256h32v16h-32zm0 0"/><path d="m368 176c-4.414062 0-8-3.59375-8-8h-16c0 10.414062 6.710938 19.214844 16 22.527344v17.472656h16v-17.472656c9.289062-3.3125 16-12.113282 16-22.527344 0-13.230469-10.769531-24-24-24-4.414062 0-8-3.59375-8-8s3.585938-8 8-8 8 3.59375 8 8h16c0-10.414062-6.710938-19.214844-16-22.527344v-17.472656h-16v17.472656c-9.289062 3.3125-16 12.113282-16 22.527344 0 13.230469 10.769531 24 24 24 4.414062 0 8 3.59375 8 8s-3.585938 8-8 8zm0 0"/><path d="m472 496h-224c-13.230469 0-24-10.769531-24-24v-96c0-13.230469 10.769531-24 24-24h69.574219l58.425781-38.945312v38.945312h96c13.230469 0 24 10.769531 24 24v96c0 13.230469-10.769531 24-24 24zm0 0" fill="#f0bc5e"/><path d="m280 400c4.414062 0 8 3.59375 8 8h16c0-13.230469-10.769531-24-24-24s-24 10.769531-24 24 10.769531 24 24 24c4.414062 0 8 3.59375 8 8s-3.585938 8-8 8-8-3.59375-8-8h-16c0 13.230469 10.769531 24 24 24s24-10.769531 24-24-10.769531-24-24-24c-4.414062 0-8-3.59375-8-8s3.585938-8 8-8zm0 0"/><path d="m344 384c-13.230469 0-24 10.769531-24 24v56h16v-16h16v16h16v-56c0-13.230469-10.769531-24-24-24zm-8 48v-24c0-4.40625 3.585938-8 8-8s8 3.59375 8 8v24zm0 0"/><path d="m400 384h-16v80h32v-16h-16zm0 0"/><path d="m432 464h32v-16h-16v-16h16v-16h-16v-16h16v-16h-32zm0 0"/></svg>