<?xml version="1.0" encoding="iso-8859-1"?>
<!-- Generator: Adobe Illustrator 19.0.0, SVG Export Plug-In . SVG Version: 6.00 Build 0)  -->
<svg version="1.1" id="Layer_1" xmlns="http://www.w3.org/2000/svg" xmlns:xlink="http://www.w3.org/1999/xlink" x="0px" y="0px"
	 viewBox="0 0 496 496" style="enable-background:new 0 0 496 496;" xml:space="preserve">
<g>
	<rect x="56" style="fill:#FFA64D;" width="48" height="208"/>
	<rect x="136" y="48" style="fill:#FFA64D;" width="48" height="160"/>
	<rect x="216" y="80" style="fill:#FFA64D;" width="48" height="128"/>
	<path style="fill:#FFA64D;" d="M464,272H304V0h160V272z"/>
</g>
<g>
	<path style="fill:#333333;" d="M472,112h-8v16h8c4.416,0,8,3.584,8,8v200.832C461.576,307.56,429.064,288,392,288
		c-57.344,0-104,46.656-104,104c0,14.168,2.872,27.68,8.024,40H24c-4.416,0-8-3.584-8-8V136c0-4.416,3.584-8,8-8h32v-16H24
		c-13.232,0-24,10.768-24,24v288c0,13.232,10.768,24,24,24h104v32h-24v16h288c57.344,0,104-46.656,104-104V136
		C496,122.768,485.232,112,472,112z M384,304.408v84.008l-62.712,55.744C310.48,429.544,304,411.536,304,392
		C304,346.176,339.216,308.464,384,304.408z M144,480v-32h160v-0.832c8.344,13.264,19.568,24.488,32.832,32.832H144z M392,480
		c-23.24,0-44.344-9.12-60.088-23.888l62.544-55.592l82.576,13.768C467.128,452.032,432.816,480,392,480z M479.672,398.504
		L400,385.224v-80.816c44.784,4.056,80,41.768,80,87.592C480,394.192,479.832,396.344,479.672,398.504z"/>
	<rect x="32" y="208" style="fill:#333333;" width="256" height="16"/>
	<rect x="48" y="256" style="fill:#333333;" width="216" height="16"/>
	<rect x="48" y="288" style="fill:#333333;" width="216" height="16"/>
	<rect x="80" y="320" style="fill:#333333;" width="184" height="16"/>
	<rect x="48" y="320" style="fill:#333333;" width="16" height="16"/>
	<rect x="48" y="352" style="fill:#333333;" width="216" height="16"/>
	<rect x="248" y="384" style="fill:#333333;" width="16" height="16"/>
	<rect x="48" y="384" style="fill:#333333;" width="184" height="16"/>
	<rect x="336" y="32" style="fill:#333333;" width="96" height="16"/>
	<rect x="368" y="64" style="fill:#333333;" width="64" height="16"/>
	<rect x="336" y="64" style="fill:#333333;" width="16" height="16"/>
	<rect x="336" y="96" style="fill:#333333;" width="96" height="16"/>
	<rect x="336" y="128" style="fill:#333333;" width="96" height="16"/>
	<rect x="336" y="160" style="fill:#333333;" width="96" height="16"/>
	<rect x="336" y="192" style="fill:#333333;" width="96" height="16"/>
	<rect x="416" y="224" style="fill:#333333;" width="16" height="16"/>
	<rect x="336" y="224" style="fill:#333333;" width="64" height="16"/>
	<rect x="264" y="112" style="fill:#333333;" width="40" height="16"/>
</g>
<g>
</g>
<g>
</g>
<g>
</g>
<g>
</g>
<g>
</g>
<g>
</g>
<g>
</g>
<g>
</g>
<g>
</g>
<g>
</g>
<g>
</g>
<g>
</g>
<g>
</g>
<g>
</g>
<g>
</g>
</svg>
