<?xml version="1.0" encoding="iso-8859-1"?>
<!-- Generator: Adobe Illustrator 19.0.0, SVG Export Plug-In . SVG Version: 6.00 Build 0)  -->
<svg version="1.1" id="Capa_1" xmlns="http://www.w3.org/2000/svg" xmlns:xlink="http://www.w3.org/1999/xlink" x="0px" y="0px"
	 viewBox="0 0 496 496" style="enable-background:new 0 0 496 496;" xml:space="preserve">
<g>
	<path style="fill:#FFCB57;" d="M424,384v24h-56c-4.416,0-8,3.584-8,8v64c0,4.416,3.584,8,8,8h112c4.416,0,8-3.584,8-8v-96
		c0-4.416-3.584-8-8-8h-48C427.584,376,424,379.584,424,384z"/>
	<path style="fill:#FFCB57;" d="M248,384v24h-56c-4.416,0-8,3.584-8,8v64c0,4.416,3.584,8,8,8h112c4.416,0,8-3.584,8-8v-96
		c0-4.416-3.584-8-8-8h-48C251.584,376,248,379.584,248,384z"/>
	<path style="fill:#FFCB57;" d="M72,384v24H16c-4.416,0-8,3.584-8,8v64c0,4.416,3.584,8,8,8h112c4.416,0,8-3.584,8-8v-96
		c0-4.416-3.584-8-8-8H80C75.584,376,72,379.584,72,384z"/>
</g>
<path style="fill:#E56565;" d="M408,288H256v-32h-16v32H88c-13.232,0-24,10.768-24,24v40h16v-40c0-4.408,3.584-8,8-8h152v48h16v-48
	h152c4.416,0,8,3.592,8,8v40h16v-40C432,298.768,421.232,288,408,288z"/>
<circle style="fill:#FFCB57;" cx="248" cy="120" r="112"/>
<g>
	<path style="fill:#3F3A34;" d="M480,368h-48c-8.824,0-16,7.176-16,16v16h-48c-8.824,0-16,7.176-16,16v64c0,8.824,7.176,16,16,16
		h112c8.824,0,16-7.176,16-16v-96C496,375.176,488.824,368,480,368z M480,480H368v-32h96v-16h-96v-16h64v-32h48V480z"/>
	<path style="fill:#3F3A34;" d="M304,368h-48c-8.824,0-16,7.176-16,16v16h-48c-8.824,0-16,7.176-16,16v64c0,8.824,7.176,16,16,16
		h112c8.824,0,16-7.176,16-16v-96C320,375.176,312.824,368,304,368z M304,480H192v-32h96v-16h-96v-16h64v-32h48V480z"/>
	<path style="fill:#3F3A34;" d="M128,368H80c-8.824,0-16,7.176-16,16v16H16c-8.824,0-16,7.176-16,16v64c0,8.824,7.176,16,16,16h112
		c8.824,0,16-7.176,16-16v-96C144,375.176,136.824,368,128,368z M128,480H16v-32h96v-16H16v-16h64v-32h48V480z"/>
	<path style="fill:#3F3A34;" d="M381.192,16L342.8,46.712C320.84,18.36,286.56,0,248,0c-66.168,0-120,53.832-120,120
		s53.832,120,120,120s120-53.832,120-120c0-21.856-5.968-42.304-16.224-59.976L386.808,32H496V16H381.192z M144,120
		c0-47.08,31.472-86.896,74.464-99.664l20.96,97.856l-58.816,80.872C158.248,179.968,144,151.64,144,120z M248,224
		c-19.968,0-38.576-5.752-54.432-15.552l56.648-77.896l83.248,48.56C314.664,206.2,283.392,224,248,224z M352,120
		c0,16.24-3.848,31.56-10.512,45.272l-86.4-50.4L234.12,17.04C238.672,16.424,243.28,16,248,16c33.512,0,63.288,16,82.328,40.696
		L299,81.752l10,12.496l30.2-24.16C347.344,84.912,352,101.92,352,120z"/>
	<rect x="480" y="48" style="fill:#3F3A34;" width="16" height="16"/>
	<rect x="392" y="48" style="fill:#3F3A34;" width="72" height="16"/>
</g>
<g>
</g>
<g>
</g>
<g>
</g>
<g>
</g>
<g>
</g>
<g>
</g>
<g>
</g>
<g>
</g>
<g>
</g>
<g>
</g>
<g>
</g>
<g>
</g>
<g>
</g>
<g>
</g>
<g>
</g>
</svg>
